<svg width="21" height="12" viewBox="0 0 21 12" fill="none" xmlns="http://www.w3.org/2000/svg">
<path d="M5.775 12C2.583 12 0 9.31091 0 6C0 2.68909 2.583 0 5.775 0H16.8C19.1205 0 21 1.95273 21 4.36364C21 6.77455 19.1205 8.72727 16.8 8.72727H7.875C6.426 8.72727 5.25 7.50545 5.25 6C5.25 4.49455 6.426 3.27273 7.875 3.27273H15.75V4.90909H7.875C7.2975 4.90909 6.825 5.39455 6.825 6C6.825 6.60545 7.2975 7.09091 7.875 7.09091H16.8C18.249 7.09091 19.425 5.86909 19.425 4.36364C19.425 2.85818 18.249 1.63636 16.8 1.63636H5.775C3.4545 1.63636 1.575 3.58909 1.575 6C1.575 8.41091 3.4545 10.3636 5.775 10.3636H15.75V12H5.775Z" fill="white"/>
</svg>
