<svg width="17" height="18" viewBox="0 0 17 18" fill="none" xmlns="http://www.w3.org/2000/svg">
<path fill-rule="evenodd" clip-rule="evenodd" d="M11.3448 11H12.1101L16.9445 16L15.5009 17.49L10.6569 12.5V11.71L10.3953 11.43C9.29088 12.41 7.85704 13 6.29726 13C2.81923 13 0 10.09 0 6.5C0 2.91 2.81923 0 6.29726 0C9.77528 0 12.5945 2.91 12.5945 6.5C12.5945 8.11 12.0229 9.59 11.0735 10.73L11.3448 11ZM1.93762 6.5C1.93762 8.99 3.88493 11 6.29726 11C8.7096 11 10.6569 8.99 10.6569 6.5C10.6569 4.01 8.7096 2 6.29726 2C3.88493 2 1.93762 4.01 1.93762 6.5Z" fill="white"/>
</svg>
